<?xml version="1.0" encoding="utf-8"?>
<!-- Generator: Adobe Illustrator 25.2.1, SVG Export Plug-In . SVG Version: 6.00 Build 0)  -->
<svg version="1.1" id="Camada_1" xmlns="http://www.w3.org/2000/svg" xmlns:xlink="http://www.w3.org/1999/xlink" x="0px" y="0px"
	 viewBox="0 0 1626 212" style="enable-background:new 0 0 1626 212;" xml:space="preserve">
<style type="text/css">
	.st0{fill:#203667;}
	.st1{fill:#F09528;}
	.st2{fill:#FAC81F;}
	.st3{fill:#739D3E;}
	.st4{fill:#A3C54F;}
	.st5{fill:#4C69AD;}
	.st6{fill:#729FD2;}
	.st7{fill:#AF294F;}
	.st8{fill:#E13F5D;}
	.st9{fill:#5B5B5F;}
	.st10{font-family:'MyriadPro-Regular';}
	.st11{font-size:12.0102px;}
</style>
<rect x="651.6" y="14.5" class="st0" width="4.1" height="183.2"/>
<g>
	<path class="st1" d="M801.1,76.4c0,0-7.2-7.2-14.4,0l-20,20c0,0-7.2,7.2,0,14.4l1.2,1.2c0,0,7.2,7.2,14.4,0l20-20
		c0,0,7.2-7.2,0-14.4L801.1,76.4z"/>
	<path class="st2" d="M802.3,129.3c0,0,7.2-7.2,0-14.4l-27.1-27.1l-8.4,8.3c0,0-7.2,7.2,0,14.4l20,20c0,0,7.2,7.2,14.4,0
		L802.3,129.3z"/>
	<path class="st1" d="M800.6,103.7c0,5.3,4.3,9.6,9.7,9.6c5.3,0,9.7-4.3,9.7-9.6c0-5.3-4.3-9.6-9.7-9.6
		C804.9,93.9,800.6,98.3,800.6,103.7z"/>
	<path class="st3" d="M784.6,147.3c0,0,7.2-7.2,0-14.4l-20-20c0,0-7.2-7.2-14.4,0l-1.2,1.2c0,0-7.2,7.2,0,14.4l20,20
		c0,0,7.2,7.2,14.4,0L784.6,147.3z"/>
	<path class="st4" d="M731.4,148.4c0,0,7.2,7.2,14.4,0l27.1-27.1l-8.3-8.3c0,0-7.2-7.2-14.4,0l-20,20c0,0-7.2,7.2,0,14.4
		L731.4,148.4z"/>
	<path class="st3" d="M757.3,146.3c-5.3,0-9.7,4.3-9.7,9.6s4.3,9.6,9.7,9.6c5.3,0,9.7-4.3,9.7-9.6
		C767,150.7,762.6,146.3,757.3,146.3z"/>
	<path class="st5" d="M713.1,130.5c0,0,7.2,7.2,14.4,0l20-20c0,0,7.2-7.2,0-14.4l-1.2-1.2c0,0-7.2-7.2-14.4,0l-20,20
		c0,0-7.2,7.2,0,14.4L713.1,130.5L713.1,130.5z"/>
	<path class="st6" d="M712,77.6c0,0-7.2,7.2,0,14.4l27.1,27.1l8.3-8.3c0,0,7.2-7.2,0-14.4l-20-20c0,0-7.2-7.2-14.4,0L712,77.6
		L712,77.6z"/>
	<path class="st5" d="M714.2,103.7c0-5.3-4.3-9.6-9.7-9.6c-5.3,0-9.7,4.3-9.7,9.6c0,5.3,4.3,9.6,9.7,9.6
		C709.8,113.3,714.2,109,714.2,103.7z"/>
	<path class="st7" d="M730.3,58.9c0,0-7.2,7.2,0,14.4l20,20c0,0,7.2,7.2,14.4,0l1.2-1.2c0,0,7.2-7.2,0-14.4l-20-19.9
		c0,0-7.2-7.2-14.4,0L730.3,58.9z"/>
	<path class="st8" d="M783.5,57.8c0,0-7.2-7.2-14.4,0L742,84.9l8.3,8.3c0,0,7.2,7.2,14.4,0l20-20c0,0,7.2-7.2,0-14.4
		C784.7,58.9,783.5,57.8,783.5,57.8z"/>
	<path class="st7" d="M757.3,59.3c5.3,0,9.7-4.3,9.7-9.6s-4.3-9.6-9.7-9.6c-5.3,0-9.7,4.3-9.7,9.6S752,59.3,757.3,59.3z"/>
	<path class="st9" d="M1151.3,114l3.6-10.8l1-3.5l1,3.5l3.6,10.8H1151.3L1151.3,114z M1139.8,127.8l0.4,0.4h6.1l0.4-0.4l2.7-8.2
		h12.8l2.7,8.2l0.4,0.4h6.1l0.4-0.4L1158.9,92l-0.4-0.4l-6,0.7l-0.4,0.4L1139.8,127.8z M1115.9,125c0,0,5,3.8,11.2,3.8
		c5.8,0,12.7-2.6,12.7-10.9c0-6.9-5.5-9.1-10-10.8c-3-1.1-6-2.3-6-5s1.6-4.6,5.2-4.6c4.2,0,6.9,2.2,6.9,2.2l0.5-0.1l2.8-4.3
		l-0.1-0.5c0,0-4-3.2-10.5-3.2c-6.3,0-11.8,4-11.8,10.7c0,6.5,5.2,8.5,9.7,10.2c3.2,1.3,6.3,2.4,6.3,5.5c0,3.6-2.7,5-6,5
		c-2.9,0-6-1.5-7.6-2.7l-0.5,0.1l-3.2,4.2L1115.9,125L1115.9,125z M1082.3,115.4c0,8.8,5.9,13.3,15,13.3c9.3,0,15-4.6,15-13.3V92
		l-0.4-0.4l-5.9,0.7l-0.4,0.4v22.2c0,5.5-3.4,7.9-8.4,7.9c-4.8,0-8.4-2.4-8.4-7.9V92l-0.4-0.4l-5.9,0.7l-0.4,0.4v22.7H1082.3z
		 M1060.1,114l3.6-10.8l1-3.5l1,3.5l3.6,10.8H1060.1z M1048.6,127.8l0.4,0.4h6.1l0.4-0.4l2.7-8.2h12.8l2.7,8.2l0.4,0.4h6.1l0.4-0.4
		L1067.8,92l-0.4-0.4l-6,0.7l-0.4,0.4L1048.6,127.8z M1019.5,115.4c0,8.8,5.9,13.3,15.1,13.3c12.2,0,14.4-8.6,14.4-8.6l-0.2-0.5
		l-5.2-1.9l-0.5,0.1c0,0-1.5,5-8.4,5c-4.8,0-8.3-2.4-8.3-7.9v-9.6c0-5.3,3.5-8,8.3-8c5.8,0,7.8,4.9,7.8,4.9l0.5,0.1l5.2-2.2l0.2-0.5
		c0,0-2.7-8.3-13.8-8.3c-9.2,0-15.1,4.7-15.1,13.6C1019.5,105,1019.5,115.4,1019.5,115.4z M988.6,114l3.6-10.8l1-3.5l1,3.5l3.6,10.8
		H988.6L988.6,114z M977.1,127.8l0.4,0.4h6.1l0.4-0.4l2.7-8.2h12.8l2.7,8.2l0.4,0.4h6.1l0.4-0.4L996.2,92l-0.4-0.4l-6,0.7l-0.4,0.4
		L977.1,127.8z M952.8,115v-9.6c0-5.3,3.5-8,8.3-8c4.9,0,8.4,2.7,8.4,8v9.6c0,5.5-3.5,7.9-8.4,7.9C956.4,123,952.8,120.5,952.8,115z
		 M946.1,115.4c0,8.8,5.9,13.3,15.1,13.3c9.3,0,15.1-4.6,15.1-13.3V105c0-8.8-5.8-13.6-15.1-13.6c-9.2,0-15.1,4.7-15.1,13.6
		C946.1,105.1,946.1,115.4,946.1,115.4z M924.4,122.5v-10.8h4.8c3.4,0,6.7,1.5,6.7,5.4c0,4.2-3.4,5.4-6.7,5.4H924.4z M924.4,106.1
		v-8.3h4.5c3.2,0,6.1,0.6,6.1,4.2c0,3.4-2.9,4.2-6.1,4.2L924.4,106.1C924.4,106.2,924.4,106.1,924.4,106.1z M917.7,127.8l0.4,0.4
		h11.7c6.6,0,12.8-3.3,12.8-11c0-3.8-1.9-7.1-5.9-8.5c3.4-1.1,4.9-4.2,4.9-7.2c0-7.1-6-9.4-12.8-9.4h-10.7l-0.4,0.4V127.8z
		 M885.5,114l3.6-10.8l1-3.5l1,3.5l3.6,10.8H885.5L885.5,114z M874,127.8l0.4,0.4h6.1l0.4-0.4l2.7-8.2h12.8l2.7,8.2l0.4,0.4h6.1
		l0.4-0.4L893.2,92l-0.4-0.4l-6,0.7l-0.4,0.4L874,127.8z M851.5,122.3V98h6.8c4.8,0,8.3,2.6,8.3,7.9v8.6c0,5.4-3.5,7.8-8.3,7.8
		H851.5z M844.8,127.8l0.4,0.4h13c9.2,0,15-4.4,15-13.3v-9.4c0-8.7-5.8-13.3-15-13.3h-13l-0.4,0.4V127.8z M994.6,75.1
		c0,0,5,3.8,11.2,3.8c5.8,0,12.7-2.6,12.7-10.9c0-6.9-5.5-9.1-10-10.8c-3-1.1-6-2.3-6-5s1.7-4.6,5.2-4.6c4.2,0,6.9,2.2,6.9,2.2
		l0.5-0.1l2.8-4.3l-0.1-0.5c0,0-4-3.2-10.5-3.2c-6.3,0-11.8,4-11.8,10.7c0,6.5,5.2,8.5,9.7,10.2c3.2,1.3,6.3,2.4,6.3,5.5
		c0,3.6-2.7,5-6,5c-2.9,0-6-1.5-7.6-2.7l-0.5,0.1l-3.2,4.2L994.6,75.1z M968.4,65.1v-9.6c0-5.3,3.5-8,8.3-8c4.9,0,8.4,2.7,8.4,8v9.6
		c0,5.5-3.5,7.9-8.4,7.9C972,73,968.4,70.6,968.4,65.1z M961.7,65.6c0,8.8,5.9,13.3,15.1,13.3c9.3,0,15.1-4.6,15.1-13.3V55.2
		c0-8.8-5.8-13.6-15.1-13.6c-9.2,0-15.1,4.7-15.1,13.6V65.6z M928.3,65.6c0,8.8,5.9,13.3,15.1,13.3c9.3,0,15.1-4.6,15.1-13.3v-6.3
		l-0.4-0.4h-13l-0.4,0.4l0.7,5.2l0.4,0.4h6.1v0.5c0,5.5-3.6,7.7-8.6,7.7c-4.8,0-8.3-2.4-8.3-7.9v-9.6c0-5.3,3.5-8,8.3-8
		c5.8,0,7.8,4.9,7.8,4.9l0.5,0.1l5.2-2.2l0.2-0.5c0,0-2.7-8.3-13.8-8.3c-9.2,0-15.1,4.7-15.1,13.6C928.3,55.1,928.3,65.6,928.3,65.6
		z M916.4,77.9l0.4,0.4h5.9l0.4-0.4V42.1l-0.4-0.4l-5.9,0.7l-0.4,0.4V77.9z M874.5,77.9l0.4,0.4h5.9l0.4-0.4V54.2l1.7,3.6l6.3,10.8
		l0.5,0.4h5l0.5-0.4l6.3-10.8l1.8-3.9v23.9l0.4,0.4h5.8l0.4-0.4V42.1l-0.5-0.3l-5.8,0.7l-0.4,0.3l-11,19.2l-11.4-20l-0.5-0.3
		l-5.5,0.7l-0.4,0.4L874.5,77.9L874.5,77.9z M851.9,64.2l3.6-10.8l1-3.5l1,3.5l3.6,10.8H851.9L851.9,64.2z M840.4,77.9l0.4,0.4h6.1
		l0.4-0.4l2.7-8.2h12.8l2.7,8.2l0.4,0.4h6.1l0.4-0.4l-12.8-35.8l-0.4-0.4l-6,0.7l-0.4,0.4L840.4,77.9z M1050,158.4v-3.8
		c0-1.8,1-2.7,2.9-2.7c1.8,0,2.9,0.9,2.9,2.7v3.8c0,1.8-1.1,2.7-2.9,2.7C1051,161,1050,160.2,1050,158.4z M1046.2,158.8
		c0,3.3,2.9,5.2,6.6,5.2c3.8,0,6.6-1.8,6.6-5.2v-4.6c0-3.3-2.9-5.2-6.6-5.2c-3.8,0-6.6,1.8-6.6,5.2V158.8z M1029.6,163.5l0.2,0.2
		h3.3l0.2-0.2v-11.1c0.7-0.1,2.1-0.4,2.7-0.4c1.5,0,2.7,0.8,2.7,2.7v8.8l0.2,0.2h3.3l0.2-0.2V154c0-3.3-2.4-5-5-5
		c-1.8,0-3.7,1-4.3,2.6l0.2-1.6v-7l-0.2-0.2l-3.3,0.4l-0.2,0.2L1029.6,163.5L1029.6,163.5z M1012.5,163.5l0.2,0.2h3.3l0.2-0.2v-11.1
		c0.7-0.1,2.2-0.4,2.7-0.4c1.5,0,2.7,0.8,2.7,2.7v8.8l0.2,0.2h3.3l0.2-0.2V154c0-3.3-2.4-5-5-5c-1.8,0-3.7,1-4.3,2.6l-1-2.3
		l-0.2-0.1l-3,0.4l-0.2,0.2l0.9,2.9L1012.5,163.5L1012.5,163.5z M1004.3,163.5l0.2,0.2h3.3l0.2-0.2v-14.1l-0.2-0.2l-3.3,0.4
		l-0.2,0.2V163.5z M1004.5,146.6h3.5l0.2-0.1v-3.1l-0.2-0.1h-3.5l-0.2,0.1v3.1L1004.5,146.6z M993.5,163.5l0.2,0.2h3.3l0.2-0.2
		v-11.1c0.3-0.1,0.7-0.1,1-0.1c1.5,0,2.8,0.5,2.8,0.5l0.3-0.2l0.4-3.3l-0.2-0.2c-2.4,0-3.8,1-4.4,2.7l-1-2.3l-0.2-0.1l-3,0.4
		l-0.2,0.2l0.9,2.9L993.5,163.5L993.5,163.5z M980.4,159.7c0-2.6,4.2-0.4,5-3.6v4.5c0,0-1.4,0.6-2.9,0.6
		C981.1,161.2,980.4,160.6,980.4,159.7L980.4,159.7z M976.5,159.7c0,2.6,2.2,4.3,4.7,4.3c3.3,0,4.3-2.7,4.3-2.7l1,2.4l0.2,0.1l3-0.4
		l0.2-0.2l-0.9-2.9v-6.7c0-3.3-2.8-4.6-6.3-4.6c-1.8,0-3.8,0.5-5.1,1.5l-0.1,0.3l1.6,2.1l0.3,0.1c0.9-0.7,2.1-1,3.2-1
		c1.4,0,2.6,0.4,2.6,2.1v0.7c-0.6,0.8-4.5,0.1-6.6,1.3C977.4,156.8,976.5,158,976.5,159.7L976.5,159.7z M961.4,158.8
		c0,3,2.4,5.2,6.7,5.2c3,0,5.2-1.2,6.3-3.5l-0.1-0.2l-2.9-0.9l-0.3,0.1c-0.6,0.9-1.4,1.5-3,1.5c-1.7,0-2.8-1-2.8-2.7v-3.8
		c0-1.8,1.1-2.7,2.8-2.7c1.3,0,2.4,0.6,2.9,1.5l0.3,0.1l2.9-0.9l0.1-0.2c-1.1-2.4-3.4-3.5-6-3.5c-4.3,0-6.7,2.1-6.7,5.2L961.4,158.8
		L961.4,158.8L961.4,158.8z M937.4,159c0,3.3,2.5,5,5.1,5c1.8,0,3.5-1,4.1-2.6l1,2.3l0.2,0.1l3-0.4l0.2-0.2l-0.9-2.9v-11l-0.2-0.2
		l-3.3,0.4l-0.2,0.2v11c-0.7,0.1-1.9,0.4-2.4,0.4c-1.5,0-2.8-0.8-2.8-2.7v-9.1l-0.2-0.2l-3.3,0.4l-0.2,0.2L937.4,159L937.4,159
		L937.4,159z M925.1,154.9v-0.2c0-1.8,1-2.6,2.7-2.6c1.6,0,2.3,0.7,2.3,1.4c0,1.5-1.2,1.8-2.8,1.8
		C926.5,155.2,925.5,155.1,925.1,154.9L925.1,154.9z M921.3,158.8c0,3.4,2.5,5.2,6.7,5.2c2.9,0,5.3-1.3,6.3-3.4l-0.1-0.2l-2.9-0.9
		l-0.3,0.1c-0.6,0.9-1.4,1.4-3,1.4c-1.8,0-2.9-0.9-2.9-2.9v-0.7l-0.2-1.3c0.8,1.3,2.4,1.8,3.9,1.8c2.7,0,5.2-1.6,5.2-4.4
		c0-2.1-1.6-4.5-6-4.5c-3.9,0-6.6,2-6.6,5.2v4.6H921.3z M906.8,162.4c1.4,1,3.5,1.6,5.5,1.6c3.3,0,6.3-1,6.3-4.6
		c0-2.9-2.7-3.7-5-4.3c-1.4-0.4-2.7-0.7-2.7-1.7s1-1.5,2.5-1.5c1.3,0,2.7,0.9,2.7,0.9h0.3l1.8-2.1v-0.3c0,0-2-1.4-4.9-1.4
		c-3.1,0-6.3,1.3-6.3,4.4c0,2.9,2.8,3.8,5.1,4.3c1.4,0.4,2.7,0.7,2.7,1.6c0,1.3-1.3,1.6-2.5,1.6c-1.7,0-3.3-1.1-3.3-1.1h-0.3
		l-1.8,2.1L906.8,162.4L906.8,162.4z M887.8,154.9v-0.2c0-1.8,1-2.6,2.7-2.6c1.6,0,2.3,0.7,2.3,1.4c0,1.5-1.3,1.8-2.8,1.8
		C889.2,155.2,888.2,155.1,887.8,154.9L887.8,154.9z M884.1,158.8c0,3.4,2.5,5.2,6.7,5.2c2.9,0,5.3-1.3,6.3-3.4l-0.1-0.2l-2.9-0.9
		l-0.3,0.1c-0.6,0.9-1.4,1.4-3,1.4c-1.8,0-2.9-0.9-2.9-2.9v-0.7l-0.2-1.3c0.8,1.3,2.4,1.8,3.9,1.8c2.7,0,5.2-1.6,5.2-4.4
		c0-2.1-1.6-4.5-6-4.5c-3.9,0-6.6,2-6.6,5.2v4.6H884.1z M871.4,158.4v-3.8c0-1.8,1-2.7,2.9-2.7c1.8,0,2.9,0.9,2.9,2.7v3.8
		c0,1.8-1.1,2.7-2.9,2.7C872.4,161,871.4,160.2,871.4,158.4z M867.6,158.8c0,3.3,2.9,5.2,6.6,5.2c3.8,0,6.6-1.8,6.6-5.2v-4.6
		c0-3.3-2.9-5.2-6.6-5.2c-3.8,0-6.6,1.8-6.6,5.2V158.8z M851.2,160.5v-12.9h4c2.8,0,4.9,1.3,4.9,4.2v4.6c0,2.9-2.1,4.1-4.9,4.1
		L851.2,160.5L851.2,160.5z M847.4,163.5l0.2,0.2h7.6c5.4,0,8.8-2.4,8.8-7v-5c0-4.6-3.4-7.1-8.8-7.1h-7.6l-0.2,0.2V163.5z"/>
</g>
<g>
	<g>
		<path class="st0" d="M113.1,11.7c0-1.9-1.6-3.7-3.7-3.7h-1.9c-1.9,0-3.7,1.6-3.7,3.7v66.1c0,1.9,1.6,3.7,3.7,3.7h1.9
			c1.9,0,3.7-1.6,3.7-3.7V11.7z"/>
		<path class="st0" d="M202.5,101.5h-66.1c-1.9,0-3.7,1.6-3.7,3.7v1.9c0,1.9,1.6,3.7,3.7,3.7h66.1c1.9,0,3.7-1.6,3.7-3.7v-1.9
			C206.2,103.1,204.6,101.5,202.5,101.5"/>
		<path class="st0" d="M80.6,101.6H14.7c-1.9,0-3.7,1.6-3.7,3.7v1.9c0,1.9,1.6,3.7,3.7,3.7h66.1c1.9,0,3.7-1.6,3.7-3.7v-1.9
			C84.2,103.2,82.6,101.6,80.6,101.6"/>
		<path class="st0" d="M129.3,38.1h-1.9c-1.9,0-3.5,1.6-3.5,3.5v45.3c0,1.9,1.6,3.5,3.5,3.5h45.3c1.9,0,3.5-1.6,3.5-3.5v-2.1
			c0-1.9-1.6-3.5-3.5-3.5h-39.9V41.6C132.8,39.7,131.2,38.1,129.3,38.1"/>
		<path class="st0" d="M84.2,81.3H44.4c-1.9,0-3.5,1.6-3.5,3.5v1.9c0,1.9,1.6,3.5,3.5,3.5h45.3c1.9,0,3.5-1.6,3.5-3.5V41.6
			c0-1.9-1.6-3.5-3.5-3.5h-1.9c-1.9,0-3.5,1.6-3.5,3.5V81.3z"/>
		<path class="st0" d="M113.1,134.2c0-1.9-1.6-3.7-3.7-3.7h-1.9c-1.9,0-3.7,1.6-3.7,3.7v66.1c0,1.9,1.6,3.7,3.7,3.7h1.9
			c1.9,0,3.7-1.6,3.7-3.7V134.2z"/>
		<path class="st0" d="M93.3,125c0-1.9-1.6-3.5-3.5-3.5H44.4c-1.9,0-3.5,1.6-3.5,3.5v1.9c0,1.9,1.6,3.5,3.5,3.5h39.9v39.9
			c0,1.9,1.6,3.5,3.5,3.5h1.9c1.9,0,3.5-1.6,3.5-3.5V125H93.3z"/>
		<path class="st0" d="M172.7,121.6h-45.3c-1.9,0-3.5,1.6-3.5,3.5v45.3c0,1.9,1.6,3.5,3.5,3.5h1.9c1.9,0,3.5-1.6,3.5-3.5v-39.9h39.9
			c1.9,0,3.5-1.6,3.5-3.5v-1.9C176.2,123.2,174.6,121.6,172.7,121.6"/>
		<path class="st0" d="M398,164.7c0,6,2.2,9.2,6.5,9.2c4.1,0,6.5-3.2,6.5-8.9c0-6-2.2-9.1-6.5-9.1C400.2,155.8,398,159,398,164.7
			 M414.7,164.8c0,6.8-3.7,10.6-10.2,10.6s-10.2-3.8-10.2-10.8c0-6.5,3.8-10.5,10.2-10.5C410.9,154.2,414.7,158,414.7,164.8"/>
		<path class="st0" d="M319.9,164.7c1,0,1.7-0.2,2.4-0.5c1.3-0.6,1.9-2.2,1.9-3.8c0-2.7-1.6-4.3-4.1-4.3H318v8.7h1.9V164.7z
			 M318,174.2c0,0.3,0,0.6,0.2,1h-3.7c0.2-0.5,0.2-0.6,0.2-1v-18.7c0-0.3,0-0.6-0.2-1h6.5c4.1,0,6.7,2.1,6.7,5.7c0,3.8-2.9,6-7.5,6
			H318L318,174.2L318,174.2z"/>
		<path class="st0" d="M336.2,164.7c0,6,2.2,9.2,6.5,9.2c4.1,0,6.5-3.2,6.5-8.9c0-6-2.2-9.1-6.5-9.1
			C338.5,155.8,336.2,159,336.2,164.7 M352.9,164.8c0,6.8-3.7,10.6-10.2,10.6s-10.2-3.8-10.2-10.8c0-6.5,3.8-10.5,10.2-10.5
			C349.3,154.2,352.9,158,352.9,164.8"/>
		<path class="st0" d="M364.5,164.4c2.4,0,4.1-1.7,4.1-4.1c0-1.3-0.5-2.5-1.4-3.3c-0.6-0.6-1.6-1-2.9-1h-1.4v8.4L364.5,164.4
			L364.5,164.4z M362.9,174.2c0,0.3,0,0.6,0.2,1h-3.7c0.2-0.3,0.2-0.6,0.2-1v-18.7c0-0.3,0-0.6-0.2-1h6.4c3.8,0,6.5,2.2,6.5,5.6
			c0,2.2-1.1,4-3.3,4.8c-0.6,0.3-1.1,0.5-2.2,0.6l6.8,8.9c0.5,0.5,0.5,0.6,0.8,0.8h-4.4c-0.2-0.3-0.2-0.6-0.5-1l-6.2-8.7v8.7H362.9z
			"/>
		<path class="st0" d="M391.4,154.5v1.9c-0.6-0.2-1-0.2-1.3-0.2h-4.4v17.9c0,0.5,0,0.6,0.2,1H382c0.2-0.3,0.2-0.6,0.2-1v-17.9h-4.4
			c-0.5,0-0.8,0-1.3,0.2v-1.9H391.4z"/>
		<path class="st0" d="M441.7,167.2l-3.3-9.4l-3.2,9.4H441.7z M432.5,174.2c-0.2,0.3-0.2,0.5-0.2,0.8h-1.9c0.2-0.3,0.3-0.6,0.5-0.8
			l6.7-19.1c0.2-0.3,0.2-0.5,0.2-0.8h3c0,0.3,0,0.5,0.2,0.6l7,19.1c0.2,0.3,0.2,0.5,0.5,0.8h-4c0-0.3,0-0.5-0.2-0.8l-1.9-5.6h-7.6
			L432.5,174.2z"/>
		<path class="st0" d="M453.6,175.2c0.2-0.5,0.2-0.6,0.2-1v-18.7c0-0.3,0-0.6-0.2-1h3.7c-0.2,0.3-0.2,0.6-0.2,1v17.9h5.9
			c0.6,0,0.6,0,1.1-0.2v1.7h-10.5V175.2z"/>
		<path class="st0" d="M480.3,154.5v1.7c-0.5-0.2-0.5-0.2-1-0.2h-6.2v7.9h6c0.6,0,0.6,0,1.1-0.2v1.7c-0.5-0.2-0.5-0.2-1.1-0.2h-6
			v8.1h6c0.3,0,0.6,0,1.1-0.2v1.7h-10.6c0.2-0.3,0.2-0.6,0.2-1v-18.7c0-0.5,0-0.6-0.2-1H480.3z"/>
		<path class="st0" d="M502.4,157.9c-2.1-1.4-3.7-1.9-5.6-1.9s-3.7,0.6-4.9,2.1c-1.4,1.6-2.1,3.8-2.1,7c0,5.6,2.4,8.9,6.7,8.9
			c1.3,0,2.1-0.2,3.2-0.8V165c0-0.5,0-0.6-0.2-1h3.7c-0.2,0.5-0.2,0.6-0.2,1v7.9c0,0.6,0,0.8,0.2,1.3c-3.8,1.3-4.8,1.4-7.1,1.4
			c-3.2,0-5.4-0.8-7.1-2.5c-1.9-1.9-2.9-4.6-2.9-7.9c0-6.7,4-10.6,10.5-10.6c2.1,0,3.5,0.3,5.7,1.1v2.2H502.4z"/>
		<path class="st0" d="M515.2,164.4c2.4,0,4.1-1.7,4.1-4.1c0-1.3-0.5-2.5-1.4-3.3c-0.6-0.6-1.6-1-2.9-1h-1.4v8.4L515.2,164.4
			L515.2,164.4z M513.8,174.2c0,0.3,0,0.6,0.2,1h-3.7c0.2-0.3,0.2-0.6,0.2-1v-18.7c0-0.3,0-0.6-0.2-1h6.4c3.8,0,6.5,2.2,6.5,5.6
			c0,2.2-1.1,4-3.3,4.8c-0.6,0.3-1.1,0.5-2.2,0.6l6.8,8.9c0.5,0.5,0.5,0.6,0.8,0.8h-4.4c-0.2-0.3-0.2-0.6-0.5-1l-6.2-8.7v8.7H513.8z
			"/>
		<path class="st0" d="M540.6,154.5v1.7c-0.5-0.2-0.6-0.2-1-0.2h-6.2v7.9h6c0.6,0,0.6,0,1.1-0.2v1.7c-0.5-0.2-0.5-0.2-1.1-0.2h-6
			v8.1h6c0.3,0,0.6,0,1.1-0.2v1.7H530c0.2-0.3,0.2-0.6,0.2-1v-18.7c0-0.5,0-0.6-0.2-1H540.6z"/>
		<path class="st0" d="M235.6,121.6c4.6,4.1,7.3,5.2,11.4,5.2c5.4,0,9.2-3.5,9.2-8.4c0-2.9-1.1-4.9-3.5-6.7c-1-0.8-3.2-1.7-7-3.7
			c-8.3-4-11.4-7.6-11.4-13.7c0-7.9,6.5-13.3,16-13.3c4,0,7,0.8,11.3,2.5l-1.6,5.1c-4-2.9-6.8-4-10.2-4c-4.6,0-7.9,3-7.9,7.1
			c0,4,1.9,5.9,10,9.5c5.1,2.4,7.6,4.1,9.4,6.4c1.7,2.4,2.7,5.1,2.7,8.1c0,4.6-2.2,9.2-5.9,11.9c-2.5,1.9-6.5,3-10.8,3
			c-4.9,0-8.4-1-13.5-3.7L235.6,121.6z"/>
		<path class="st0" d="M293.5,111.6l-7.8-21.9l-7.6,21.9H293.5z M272.1,128.3c-0.2,0.8-0.3,1.1-0.3,2.1h-4.6c0.5-0.8,0.8-1.3,1-2.1
			L284,83.7c0.2-0.8,0.3-1.1,0.3-1.7h7c0,0.6,0.2,1,0.3,1.6l16.4,44.8c0.3,0.8,0.5,1.1,1.1,2.1h-9.4c0-0.8,0-1.1-0.3-2.1l-4.6-13.2
			h-17.9L272.1,128.3z"/>
		<path class="st0" d="M319.6,128c0,1,0,1.4,0.3,2.4h-4.3c0.2-1,0.3-1.6,0.3-2.4V84.3c0-0.8,0-1.4-0.3-2.4h7.6
			c0.2,0.6,0.2,0.8,0.8,1.7l26.5,37V84.3c0-0.8,0-1.4-0.3-2.4h4.3c-0.2,0.8-0.3,1.1-0.3,2.4v44c0,1.1,0,1.4,0.3,2.2h-7l-0.3-0.6
			c-0.2-0.3-0.5-0.8-0.8-1.1l-27-37.6V128H319.6z"/>
		<path class="st0" d="M394.8,81.9v4.4c-1.4-0.3-2.1-0.3-3-0.3h-10.5v42.1c0,1,0,1.4,0.3,2.4h-8.6c0.2-0.8,0.3-1.4,0.3-2.4V86.1
			h-10.5c-1,0-1.7,0-3,0.3v-4.4H394.8z"/>
		<path class="st0" d="M418,111.6l-7.8-21.9l-7.6,21.9H418z M396.8,128.3c-0.2,0.8-0.3,1.1-0.3,2.1h-4.6c0.5-0.8,0.8-1.3,1-2.1
			l15.9-44.6c0.2-0.8,0.3-1.1,0.3-1.7h7c0,0.6,0.2,1,0.3,1.6l16.4,44.8c0.3,0.8,0.5,1.1,1.1,2.1h-9.4c0-0.8,0-1.1-0.3-2.1l-4.6-13.2
			h-17.9L396.8,128.3z"/>
		<path class="st0" d="M495.5,89.9c-4.3-3.5-7.1-4.8-11.6-4.8c-10,0-16,7.9-16,20.8c0,12.7,6.4,21,16.2,21c4.3,0,7.3-1.3,11.3-5.1
			v6.4c-4.6,2.2-7.6,2.9-12.7,2.9c-15.2,0-23.7-8.9-23.7-25.3c0-15.7,8.9-24.6,24.8-24.6c4.4,0,7.6,0.6,11.4,2.2v6.5H495.5z"/>
		<path class="st0" d="M526.7,111.6l-7.8-21.9l-7.6,21.9H526.7z M505.2,128.3c-0.2,0.8-0.3,1.1-0.3,2.1h-4.6c0.5-0.8,0.8-1.3,1-2.1
			l15.9-44.6c0.2-0.8,0.3-1.1,0.3-1.7h7c0,0.6,0.2,1,0.3,1.6l16.4,44.8c0.3,0.8,0.5,1.1,1.1,2.1h-9.4c0-0.8,0-1.1-0.3-2.1l-4.6-13.2
			H510L505.2,128.3z"/>
		<path class="st0" d="M547.5,121.6c4.6,4.1,7.3,5.2,11.4,5.2c5.4,0,9.2-3.5,9.2-8.4c0-2.9-1.1-4.9-3.5-6.7c-1-0.8-3.2-1.7-7-3.7
			c-8.3-4-11.4-7.6-11.4-13.7c0-7.9,6.5-13.3,16-13.3c4,0,7,0.8,11.3,2.5l-1.6,5.1c-4-2.9-6.8-4-10.2-4c-4.6,0-7.9,3-7.9,7.1
			c0,4,1.9,5.9,10,9.5c5.1,2.4,7.6,4.1,9.4,6.4c1.7,2.4,2.7,5.1,2.7,8.1c0,4.6-2.2,9.2-5.9,11.9c-2.5,1.9-6.5,3-10.8,3
			c-4.9,0-8.4-1-13.5-3.7L547.5,121.6z"/>
		<path class="st0" d="M605.3,111.6l-7.8-21.9l-7.6,21.9H605.3z M584,128.3c-0.2,0.8-0.3,1.1-0.3,2.1h-4.6c0.5-0.8,0.8-1.3,1-2.1
			l15.9-44.6c0.2-0.8,0.3-1.1,0.3-1.7h7c0,0.6,0.2,1,0.3,1.6l16.4,44.8c0.3,0.8,0.5,1.1,1.1,2.1h-9.4c0-0.8,0-1.1-0.3-2.1l-4.6-13.2
			h-17.9L584,128.3z"/>
		<text transform="matrix(1 0 0 1 314.8344 109.4877)" class="st0 st10 st11">.</text>
	</g>
</g>
</svg>
