<svg xmlns="http://www.w3.org/2000/svg" width="108" height="36" viewBox="0 0 108 36" fill="none"><g clip-path="url(#clip0_5055_136425)"><path d="M18.3557 34.3235H34.7905C34.9328 34.3235 35.0039 34.2523 35.0039 34.1101V2.25572C35.0039 2.1033 35.0039 1.98137 35.0039 1.82896C35.0039 1.73751 34.9735 1.70703 34.882 1.70703C34.821 1.70703 34.76 1.70703 34.699 1.70703H1.95144C1.92095 1.70703 1.89046 1.70703 1.85997 1.70703C1.76849 1.70703 1.738 1.73751 1.738 1.82896C1.738 1.98137 1.738 2.13379 1.738 2.2862C1.738 12.8637 1.738 23.4107 1.738 33.9881C1.738 34.2117 1.8498 34.3235 2.0734 34.3235C7.50085 34.3235 12.9588 34.3235 18.3862 34.3235H18.3557ZM36.742 36.0305H0V0H36.742V36V36.0305Z" fill="white"></path><path d="M10.9773 7.01095C9.60516 7.01095 8.26354 7.01095 6.89143 7.01095C6.76947 7.01095 6.70849 7.01095 6.70849 7.16336C6.70849 9.87632 6.70849 12.5893 6.70849 15.3327C6.70849 15.4546 6.76947 15.4851 6.89143 15.4851C9.60516 15.4851 12.3189 15.4851 15.0326 15.4851C15.1851 15.4851 15.2155 15.4242 15.2155 15.3022C15.2155 12.5893 15.2155 9.9068 15.2155 7.19384C15.2155 7.04143 15.1851 7.01095 15.0326 7.01095C13.691 7.01095 12.3494 7.01095 10.9773 7.01095ZM5.00098 5.27344H16.8926V17.1921H5.00098V5.30392V5.27344Z" fill="white"></path><path d="M19.8193 5.27344H31.7414C31.7414 5.3344 31.7414 5.36489 31.7414 5.42585C31.7414 5.88309 31.7414 6.30985 31.7414 6.76709C31.7414 6.88902 31.6804 6.9195 31.589 6.9195C30.6437 6.9195 29.6985 6.9195 28.7228 6.9195C26.375 6.9195 24.0271 6.9195 21.6793 6.9195C21.4659 6.9195 21.4659 6.9195 21.4659 7.13288C21.4659 9.87632 21.4659 12.6198 21.4659 15.3327C21.4659 15.4851 21.4964 15.5461 21.6793 15.5461C24.9724 15.5461 28.2349 15.5461 31.528 15.5461H31.7414V17.1921C31.6804 17.1921 31.6194 17.1921 31.589 17.1921C27.7471 17.1921 23.8747 17.1921 20.0328 17.1921C19.8803 17.1921 19.8498 17.1617 19.8498 17.0093C19.8498 13.1684 19.8498 9.29715 19.8498 5.45633C19.8498 5.39537 19.8498 5.36489 19.8498 5.27344" fill="white"></path><path d="M31.7416 18.7775C31.7416 18.869 31.7416 18.9299 31.7416 18.9909C31.7416 22.8317 31.7416 26.6725 31.7416 30.4828C31.7416 30.6251 31.6603 30.6962 31.4977 30.6962C27.6558 30.6962 23.8444 30.6962 20.0025 30.6962H19.7891C19.7891 30.6353 19.7891 30.6048 19.7891 30.5438C19.7891 30.0866 19.7891 29.6598 19.7891 29.2026C19.7891 29.0502 19.8196 29.0197 19.972 29.0197C22.2893 29.0197 24.6067 29.0197 26.924 29.0197C27.8997 29.0197 28.9059 29.0197 29.8817 29.0197C30.0341 29.0197 30.0646 28.9892 30.0646 28.8368C30.0646 26.0933 30.0646 23.3499 30.0646 20.6065C30.0646 20.4236 30.0036 20.3931 29.8512 20.3931C26.5886 20.3931 23.2956 20.3931 20.033 20.3931H19.7891V19.9663C19.7891 19.6005 19.7891 19.2652 19.7891 18.8994C19.7891 18.7775 19.8196 18.7165 19.9415 18.747C19.972 18.747 20.0025 18.747 20.033 18.747H31.7111L31.7416 18.7775Z" fill="white"></path><path d="M6.64675 30.7263H6.31134C5.91496 30.7263 5.51857 30.7263 5.12218 30.7263C5.00022 30.7263 4.96973 30.6958 4.96973 30.5739C4.96973 30.4519 4.96973 30.33 4.96973 30.2081C4.96973 26.4892 4.96973 22.7703 4.96973 19.0819C4.96973 18.7466 4.96973 18.8076 5.24415 18.8076C5.64053 18.8076 6.03692 18.8076 6.43331 18.8076C6.58576 18.8076 6.61625 18.838 6.61625 18.9905C6.61625 22.1606 6.61625 25.3308 6.61625 28.501V30.7567L6.64675 30.7263Z" fill="white"></path><path d="M45.1881 17.9239H47.3834C48.0238 17.9239 48.5726 17.7715 48.969 17.4666C49.3654 17.1618 49.5788 16.7046 49.5788 16.0949C49.5788 15.4853 49.3654 15.028 48.969 14.7232C48.5726 14.4184 48.0238 14.266 47.3834 14.266H45.1881V17.8934V17.9239ZM43.877 13.0771H47.1395C47.6579 13.0771 48.1457 13.1381 48.6031 13.2296C49.0605 13.321 49.4873 13.5039 49.8227 13.7173C50.1886 13.9611 50.463 14.266 50.6765 14.6622C50.8899 15.0585 50.9814 15.5158 50.9814 16.0949C50.9814 16.6741 50.8594 17.1923 50.646 17.5886C50.4326 17.9849 50.1276 18.2897 49.7618 18.5335C49.3959 18.7774 48.9995 18.9298 48.6031 19.0213C48.1762 19.1127 47.7798 19.1737 47.3834 19.1737H45.1881V24.1119H43.877V13.0771Z" fill="white"></path><path d="M52.2622 18.5334C52.2622 18.1981 52.2622 17.8933 52.2317 17.5884C52.2317 17.3141 52.2012 17.0398 52.2012 16.7959H53.3598C53.3598 16.9788 53.3598 17.1922 53.3598 17.3751C53.3598 17.558 53.3598 17.7713 53.3598 17.9847H53.3903C53.4818 17.8018 53.6038 17.6494 53.7257 17.4665C53.8782 17.3141 54.0611 17.1617 54.2746 17.0093C54.488 16.8873 54.7015 16.7654 54.9759 16.7044C55.2198 16.613 55.5247 16.5825 55.8296 16.5825C56.1345 16.5825 55.9821 16.5825 56.0736 16.5825C56.165 16.5825 56.226 16.613 56.3175 16.6435L56.226 17.8628C56.0126 17.8018 55.7991 17.7713 55.5857 17.7713C54.8539 17.7713 54.3051 18.0152 53.9697 18.5029C53.6343 18.9906 53.4513 19.6308 53.4513 20.4843V24.0203H52.2317V18.4724L52.2622 18.5334Z" fill="white"></path><path d="M61.4701 13.3516H63.1776L60.9517 15.5768H59.854L61.4701 13.3516ZM58.3599 20.4235C58.3599 20.8198 58.4209 21.1551 58.5429 21.4904C58.6649 21.8257 58.8478 22.1001 59.0612 22.3439C59.2747 22.5878 59.5491 22.7707 59.8845 22.9231C60.1894 23.0755 60.5553 23.1365 60.9517 23.1365C61.3481 23.1365 61.714 23.0755 62.0189 22.9231C62.3238 22.7707 62.5982 22.5878 62.8422 22.3439C63.0556 22.1001 63.2385 21.8257 63.3605 21.4904C63.4825 21.1551 63.5435 20.8198 63.5435 20.4235C63.5435 20.0273 63.4825 19.692 63.3605 19.3566C63.2385 19.0213 63.0556 18.747 62.8422 18.5031C62.6287 18.2593 62.3543 18.0764 62.0189 17.924C61.714 17.7715 61.3481 17.7106 60.9517 17.7106C60.5553 17.7106 60.1894 17.7715 59.8845 17.924C59.5796 18.0764 59.3052 18.2593 59.0612 18.5031C58.8478 18.747 58.6649 19.0213 58.5429 19.3566C58.4209 19.692 58.3599 20.0273 58.3599 20.4235ZM57.0488 20.4235C57.0488 19.8444 57.1403 19.3262 57.3537 18.8689C57.5367 18.4117 57.8111 18.0154 58.1465 17.6801C58.4819 17.3448 58.9088 17.0704 59.3662 16.8875C59.854 16.7047 60.3724 16.6132 60.9212 16.6132C61.4701 16.6132 61.9884 16.7047 62.4763 16.8875C62.9641 17.0704 63.3605 17.3448 63.6959 17.6801C64.0313 18.0154 64.3057 18.4117 64.4887 18.8689C64.6716 19.3262 64.7936 19.8444 64.7936 20.4235C64.7936 21.0027 64.7021 21.5209 64.4887 21.9781C64.3057 22.4354 64.0313 22.8317 63.6959 23.167C63.3605 23.5023 62.9336 23.7766 62.4763 23.9595C61.9884 24.1424 61.4701 24.2339 60.9212 24.2339C60.3724 24.2339 59.854 24.1424 59.3662 23.9595C58.8783 23.7766 58.4819 23.5023 58.1465 23.167C57.8111 22.8317 57.5367 22.4354 57.3537 21.9781C57.1708 21.5209 57.0488 21.0027 57.0488 20.4235Z" fill="white"></path><path d="M70.0077 19.7832H66.1963V20.9111H70.0077V19.7832Z" fill="white"></path><path d="M76.9601 14.9974C76.7467 14.6316 76.4418 14.3878 76.0759 14.2353C75.71 14.0829 75.3441 13.9915 74.9477 13.9915C74.5513 13.9915 74.3684 14.022 74.0939 14.1134C73.8195 14.1744 73.5756 14.2963 73.3317 14.4487C73.1182 14.6011 72.9353 14.784 72.7828 15.0279C72.6609 15.2718 72.5694 15.5461 72.5694 15.8509C72.5694 16.1558 72.5999 16.3082 72.6913 16.5215C72.7828 16.7044 72.9048 16.8873 73.0572 17.0398C73.2097 17.1922 73.4841 17.3446 73.7585 17.4665C74.0634 17.5884 74.4293 17.7409 74.8562 17.8628C75.2831 17.9847 75.6795 18.1371 76.0759 18.2895C76.4723 18.442 76.8382 18.6553 77.1431 18.8687C77.448 19.1126 77.6919 19.4174 77.8749 19.7527C78.0578 20.1185 78.1493 20.5453 78.1493 21.0939C78.1493 21.6426 78.0273 22.1304 77.8139 22.5266C77.6004 22.9229 77.2955 23.2582 76.9601 23.5326C76.5942 23.8069 76.1978 23.9898 75.7405 24.1117C75.2831 24.2337 74.7952 24.2946 74.3074 24.2946C73.8195 24.2946 73.6671 24.2946 73.3317 24.2032C72.9963 24.1422 72.6913 24.0508 72.4169 23.9288C72.112 23.8069 71.8376 23.6545 71.5937 23.4716C71.3497 23.2887 71.1058 23.0448 70.9229 22.7705L72.051 21.856C72.295 22.2523 72.6304 22.5571 73.0572 22.7705C73.4841 22.9839 73.9415 23.0753 74.3989 23.0753C74.8562 23.0753 74.9477 23.0448 75.2526 22.9534C75.527 22.8619 75.8015 22.74 76.0149 22.5876C76.2283 22.4352 76.4418 22.2218 76.5637 21.9779C76.7162 21.7341 76.7772 21.4597 76.7772 21.1549C76.7772 20.8501 76.7162 20.5453 76.5942 20.3319C76.4723 20.1185 76.2893 19.9356 76.0759 19.7832C75.8319 19.6308 75.527 19.4784 75.1611 19.3564C74.7952 19.2345 74.3684 19.0821 73.8805 18.9297C73.4841 18.8077 73.1182 18.6553 72.7828 18.5029C72.4474 18.3505 72.173 18.1371 71.9291 17.9237C71.6851 17.6799 71.5022 17.4055 71.3497 17.0702C71.1973 16.7349 71.1363 16.3387 71.1363 15.9119C71.1363 15.4851 71.2278 14.9364 71.4412 14.5402C71.6546 14.1439 71.9291 13.8086 72.295 13.5647C72.6609 13.2904 73.0572 13.1075 73.4841 12.9551C73.9415 12.8331 74.3989 12.7417 74.8867 12.7417C75.3746 12.7417 76.0759 12.8331 76.5942 13.016C77.1126 13.1989 77.5699 13.5342 77.9663 14.022L76.8991 14.9669L76.9601 14.9974Z" fill="white"></path><path d="M83.2711 20.576C82.5089 20.576 81.8685 20.698 81.4112 20.9113C80.9538 21.1247 80.7404 21.4905 80.7404 21.9782C80.7404 22.4659 80.8928 22.7708 81.1977 22.9537C81.5026 23.1366 81.8685 23.228 82.3259 23.228C82.7833 23.228 82.9967 23.167 83.2407 23.0451C83.5151 22.9232 83.7285 22.7708 83.9115 22.5574C84.0944 22.3745 84.2164 22.1306 84.3078 21.8563C84.3993 21.5819 84.4603 21.3076 84.4603 21.0028V20.5455H83.2407L83.2711 20.576ZM79.7647 17.7411C80.1305 17.3449 80.5879 17.0705 81.1063 16.8876C81.6246 16.7047 82.143 16.6133 82.6613 16.6133C83.7285 16.6133 84.5213 16.8571 84.9787 17.3753C85.4665 17.8936 85.68 18.6556 85.68 19.692V22.8013C85.68 23.0146 85.68 23.228 85.7104 23.4414C85.7104 23.6548 85.7714 23.8681 85.8019 24.051H84.6433C84.6128 23.8986 84.5823 23.7157 84.5823 23.5024C84.5823 23.289 84.5823 23.1366 84.5823 22.9537H84.5518C84.3078 23.3195 84.0029 23.6243 83.6066 23.8681C83.2102 24.112 82.7223 24.2339 82.1735 24.2339C81.6246 24.2339 81.4417 24.173 81.1368 24.0815C80.8014 23.9901 80.5269 23.8377 80.283 23.6853C80.0391 23.5024 79.8561 23.289 79.7037 23.0146C79.5512 22.7403 79.4902 22.4355 79.4902 22.0697C79.4902 21.46 79.6427 21.0028 79.9476 20.6675C80.2525 20.3322 80.6489 20.0578 81.1063 19.9054C81.5636 19.753 82.0515 19.6311 82.6003 19.6006C83.1187 19.5701 83.637 19.5396 84.0639 19.5396H84.5213V19.3262C84.5213 18.808 84.3688 18.4118 84.0334 18.1374C83.698 17.8631 83.2711 17.7411 82.6918 17.7411C82.1125 17.7411 81.899 17.8021 81.5331 17.924C81.1672 18.046 80.8318 18.2593 80.5269 18.5337L79.7647 17.7411Z" fill="white"></path><path d="M88.1503 20.4233C88.1503 20.8196 88.2113 21.1549 88.3333 21.4902C88.4552 21.8255 88.6382 22.0999 88.8516 22.3437C89.0651 22.5876 89.3395 22.7705 89.6749 22.9229C89.9798 23.0753 90.3457 23.1363 90.7421 23.1363C91.1385 23.1363 91.5044 23.0753 91.8093 22.9229C92.1142 22.7705 92.3886 22.5876 92.6325 22.3437C92.846 22.0999 93.0289 21.8255 93.1509 21.4902C93.2729 21.1549 93.3338 20.8196 93.3338 20.4233C93.3338 20.027 93.2729 19.6917 93.1509 19.3564C93.0289 19.0211 92.846 18.7468 92.6325 18.5029C92.4191 18.2591 92.1447 18.0762 91.8093 17.9237C91.5044 17.7713 91.1385 17.7104 90.7421 17.7104C90.3457 17.7104 89.9798 17.7713 89.6749 17.9237C89.37 18.0762 89.0955 18.2591 88.8516 18.5029C88.6382 18.7468 88.4552 19.0211 88.3333 19.3564C88.2113 19.6917 88.1503 20.027 88.1503 20.4233ZM86.9307 12.3149H88.1503V17.8323H88.1808C88.5162 17.436 88.9126 17.1312 89.3395 16.9178C89.7664 16.7044 90.2542 16.5825 90.8031 16.5825C91.3519 16.5825 91.9007 16.674 92.3581 16.8569C92.8155 17.0398 93.2424 17.3141 93.5473 17.6494C93.8827 17.9847 94.1266 18.381 94.3096 18.8687C94.4925 19.3259 94.584 19.8442 94.584 20.3928C94.584 20.9415 94.4925 21.4597 94.3096 21.917C94.1266 22.3742 93.8522 22.801 93.5473 23.1363C93.2119 23.4716 92.846 23.7459 92.3886 23.9288C91.9312 24.1117 91.4739 24.2032 90.9555 24.2032C90.4372 24.2032 89.7359 24.0508 89.248 23.7764C88.7601 23.5021 88.3942 23.1363 88.1808 22.74H88.1503V24.0203H86.9307V12.3149Z" fill="white"></path><path d="M101.353 19.7834C101.353 19.1738 101.14 18.6555 100.744 18.2898C100.347 17.924 99.8288 17.7411 99.158 17.7411C98.4872 17.7411 97.9383 17.924 97.5419 18.2898C97.1151 18.6555 96.8711 19.1738 96.8101 19.7834H101.384H101.353ZM102.39 22.7402C101.963 23.2889 101.475 23.6852 100.957 23.8986C100.439 24.1119 99.8288 24.2339 99.158 24.2339C98.4872 24.2339 98.0908 24.1424 97.6334 23.929C97.176 23.7157 96.7797 23.4413 96.4747 23.106C96.1698 22.7707 95.9259 22.3744 95.7429 21.8867C95.56 21.4295 95.499 20.9113 95.499 20.3931C95.499 19.8749 95.5905 19.3262 95.7734 18.8384C95.9564 18.3812 96.2308 17.9544 96.5357 17.6191C96.8711 17.2838 97.2675 17.0095 97.7249 16.8266C98.1822 16.6437 98.6701 16.5522 99.219 16.5522C99.7678 16.5522 100.195 16.6437 100.622 16.7961C101.048 16.979 101.414 17.2229 101.719 17.5277C102.024 17.863 102.268 18.2593 102.421 18.7165C102.573 19.1738 102.664 19.7224 102.664 20.3321V20.7284H96.7797C96.7797 21.0332 96.8711 21.338 96.9931 21.6124C97.1151 21.8867 97.298 22.1611 97.5114 22.3439C97.7249 22.5573 97.9688 22.7097 98.2432 22.8622C98.5177 22.9841 98.8226 23.045 99.158 23.045C99.6763 23.045 100.134 22.9536 100.5 22.7707C100.865 22.5878 101.201 22.3135 101.475 21.9477L102.39 22.6488V22.7402Z" fill="white"></path><path d="M103.945 18.5334C103.945 18.1981 103.945 17.8933 103.914 17.5884C103.914 17.3141 103.884 17.0398 103.884 16.7959H105.042C105.042 16.9788 105.042 17.1922 105.042 17.3751C105.042 17.558 105.042 17.7713 105.042 17.9847H105.073C105.164 17.8018 105.286 17.6494 105.408 17.4665C105.561 17.3141 105.744 17.1617 105.957 17.0093C106.171 16.8569 106.384 16.7654 106.658 16.7044C106.902 16.613 107.207 16.5825 107.512 16.5825C107.817 16.5825 107.665 16.5825 107.756 16.5825C107.848 16.5825 107.909 16.613 108 16.6435L107.909 17.8628C107.695 17.8018 107.482 17.7713 107.268 17.7713C106.537 17.7713 105.988 18.0152 105.652 18.5029C105.317 18.9906 105.134 19.6308 105.134 20.4843V24.0203H103.914V18.4724L103.945 18.5334Z" fill="white"></path><path d="M48.6332 28.623C48.4502 28.3486 48.2368 28.1353 47.9319 28.0133C47.6574 27.8914 47.3525 27.8304 47.0476 27.8304C46.7427 27.8304 46.5902 27.8304 46.3768 27.9219C46.1634 27.9828 45.9499 28.0743 45.767 28.1657C45.584 28.2877 45.4621 28.4401 45.3401 28.623C45.2486 28.8059 45.1876 29.0192 45.1876 29.2936C45.1876 29.5679 45.2181 29.6594 45.2791 29.8118C45.3401 29.9642 45.4316 30.0861 45.584 30.2081C45.7365 30.33 45.9194 30.4519 46.1634 30.5434C46.4073 30.6348 46.6817 30.7568 47.0476 30.8482C47.383 30.9397 47.7184 31.0616 48.0233 31.1835C48.3282 31.3054 48.6027 31.4579 48.8466 31.6408C49.0905 31.8237 49.2735 32.0675 49.4259 32.3419C49.5784 32.6162 49.6394 32.982 49.6394 33.4087C49.6394 33.8355 49.5479 34.2318 49.3954 34.5366C49.2125 34.8414 48.999 35.1158 48.7246 35.3292C48.4502 35.5425 48.1148 35.6949 47.7489 35.7864C47.383 35.8778 46.9866 35.9388 46.6207 35.9388C46.2548 35.9388 46.1024 35.9388 45.8584 35.8778C45.6145 35.8474 45.3706 35.7559 45.1267 35.6645C44.8827 35.573 44.6693 35.4511 44.4559 35.2987C44.2424 35.1463 44.09 34.9634 43.9375 34.75L44.8217 34.0184C45.0047 34.3232 45.2791 34.5671 45.6145 34.75C45.9499 34.9024 46.3158 34.9938 46.6817 34.9938C47.0476 34.9938 47.1391 34.9634 47.3525 34.9024C47.566 34.8414 47.7794 34.75 47.9623 34.6281C48.1453 34.5061 48.2977 34.3537 48.3892 34.1403C48.5112 33.9574 48.5722 33.7441 48.5722 33.5002C48.5722 33.2563 48.5417 33.0125 48.4502 32.8296C48.3587 32.6772 48.2063 32.5248 48.0233 32.4028C47.8404 32.2809 47.5964 32.159 47.322 32.0675C47.0476 31.9761 46.7122 31.8541 46.3158 31.7322C46.0109 31.6408 45.706 31.5188 45.4621 31.3969C45.1876 31.275 44.9742 31.1226 44.7913 30.9397C44.6083 30.7568 44.4558 30.5434 44.3339 30.269C44.2119 30.0252 44.1814 29.6899 44.1814 29.3546C44.1814 29.0192 44.2729 28.562 44.4254 28.2572C44.5778 27.9524 44.8217 27.678 45.0962 27.4646C45.3706 27.2513 45.6755 27.0988 46.0414 27.0074C46.4073 26.9159 46.7732 26.855 47.1391 26.855C47.505 26.855 48.0843 26.9159 48.4807 27.0684C48.8771 27.2208 49.243 27.4951 49.5784 27.8609L48.7246 28.5925L48.6332 28.623Z" fill="white"></path><path d="M53.6038 33.0125C52.994 33.0125 52.5061 33.1039 52.1402 33.2563C51.7743 33.4392 51.5914 33.7136 51.5914 34.1099C51.5914 34.5061 51.7134 34.7195 51.9573 34.8719C52.2012 35.0243 52.5061 35.0853 52.872 35.0853C53.2379 35.0853 53.3904 35.0243 53.6038 34.9329C53.8173 34.8414 54.0002 34.7195 54.1222 34.5671C54.2441 34.4147 54.3661 34.2318 54.4271 34.0184C54.4881 33.805 54.549 33.5916 54.549 33.3478V32.982H53.6038V33.0125ZM51.134 28.7754C51.134 28.623 51.195 28.4706 51.256 28.3182C51.317 28.1657 51.4084 28.0133 51.4999 27.9219C51.5914 27.7999 51.7134 27.7085 51.8658 27.6475C52.0183 27.5866 52.1707 27.5256 52.3537 27.5256C52.5366 27.5256 52.7196 27.5256 52.9025 27.617C53.055 27.678 53.2379 27.739 53.3904 27.7999C53.5123 27.8609 53.6343 27.8914 53.7258 27.9524C53.8173 27.9828 53.9392 28.0133 54.0612 28.0133C54.1831 28.0133 54.3661 27.9524 54.4576 27.8609C54.549 27.7695 54.61 27.617 54.671 27.4951H55.2503C55.2503 27.6475 55.1894 27.7999 55.1284 27.9524C55.0674 28.1048 55.0064 28.2267 54.9149 28.3486C54.8235 28.4706 54.7015 28.562 54.5795 28.6535C54.4576 28.7144 54.3051 28.7754 54.1222 28.7754C53.9392 28.7754 53.7868 28.7754 53.6038 28.6839C53.4514 28.623 53.2684 28.562 53.116 28.501C52.994 28.4401 52.872 28.4096 52.7196 28.3486C52.5671 28.2877 52.4451 28.2572 52.2927 28.2572C52.1402 28.2572 52.0183 28.3181 51.9268 28.4096C51.8353 28.5315 51.7743 28.6535 51.7438 28.7754H51.1645H51.134ZM50.8291 30.7568C51.134 30.4519 51.4694 30.2386 51.8658 30.0861C52.2622 29.9337 52.6891 29.8728 53.0855 29.8728C53.9392 29.8728 54.549 30.0861 54.9149 30.4824C55.2808 30.8787 55.4943 31.4883 55.4943 32.3114V34.7805C55.4943 34.9329 55.4943 35.1158 55.4943 35.2987C55.4943 35.4816 55.5248 35.634 55.5553 35.7864H54.6405C54.61 35.6645 54.5795 35.5121 54.5795 35.3596C54.5795 35.2072 54.5795 35.0548 54.5795 34.9329C54.3966 35.2377 54.1527 35.4816 53.8173 35.6645C53.5123 35.8474 53.116 35.9388 52.6891 35.9388C52.2622 35.9388 52.1097 35.9083 51.8658 35.8169C51.6219 35.7559 51.3779 35.634 51.195 35.4816C51.0121 35.3292 50.8596 35.1463 50.7376 34.9329C50.6157 34.7195 50.5547 34.4756 50.5547 34.2013C50.5547 33.7136 50.6767 33.3478 50.9206 33.0734C51.1645 32.7991 51.4694 32.6162 51.8353 32.4638C52.2012 32.3419 52.5976 32.2504 53.0245 32.2199C53.4514 32.1894 53.8173 32.159 54.1831 32.159H54.549V31.9761C54.549 31.5493 54.4271 31.2445 54.1831 31.0311C53.9392 30.8177 53.5733 30.7263 53.1464 30.7263C52.7196 30.7263 52.5366 30.7872 52.2317 30.8787C51.9268 30.9701 51.6829 31.153 51.4389 31.3359L50.8291 30.6958V30.7568Z" fill="white"></path><path d="M57.5064 32.9214C57.5064 33.2262 57.5674 33.5006 57.6589 33.7749C57.7504 34.0188 57.9028 34.2626 58.0553 34.4455C58.2382 34.6284 58.4517 34.7808 58.6956 34.9028C58.9395 35.0247 59.2139 35.0552 59.5494 35.0552C59.8848 35.0552 60.1287 34.9942 60.4031 34.9028C60.647 34.7808 60.8605 34.6284 61.0434 34.4455C61.2264 34.2626 61.3483 34.0188 61.4398 33.7749C61.5313 33.531 61.5923 33.2262 61.5923 32.9214C61.5923 32.6166 61.5313 32.3422 61.4398 32.0679C61.3483 31.824 61.1959 31.5801 61.0434 31.3972C60.8605 31.2144 60.647 31.0619 60.4031 30.94C60.1592 30.8181 59.8848 30.7876 59.5494 30.7876C59.2139 30.7876 58.97 30.8486 58.6956 30.94C58.4517 31.0619 58.2382 31.2144 58.0553 31.3972C57.8723 31.5801 57.7504 31.824 57.6589 32.0679C57.5674 32.3117 57.5064 32.6166 57.5064 32.9214ZM56.4697 32.9214C56.4697 32.4641 56.5612 32.0679 56.7137 31.7021C56.8661 31.3363 57.0796 31.0315 57.354 30.7571C57.6284 30.4828 57.9333 30.2999 58.3297 30.1475C58.7261 29.995 59.1225 29.9341 59.5494 29.9341C59.9762 29.9341 60.4031 29.995 60.769 30.1475C61.1349 30.2999 61.4703 30.5133 61.7447 30.7571C62.0192 31.0315 62.2326 31.3363 62.385 31.7021C62.5375 32.0679 62.629 32.4641 62.629 32.9214C62.629 33.3786 62.5375 33.7749 62.385 34.1407C62.2326 34.5065 62.0192 34.8113 61.7447 35.0856C61.4703 35.36 61.1654 35.5429 60.769 35.6953C60.4031 35.8477 59.9762 35.9087 59.5494 35.9087C59.1225 35.9087 58.6956 35.8477 58.3297 35.6953C57.9638 35.5429 57.6284 35.3295 57.354 35.0856C57.0796 34.8113 56.8661 34.5065 56.7137 34.1407C56.5612 33.7749 56.4697 33.3786 56.4697 32.9214Z" fill="white"></path><path d="M68.6969 30.9092H70.4349C70.9532 30.9092 71.3801 30.7872 71.685 30.5739C71.9899 30.3605 72.1729 29.9642 72.1729 29.4765C72.1729 28.9888 72.0204 28.623 71.685 28.3791C71.3496 28.1353 70.9532 28.0438 70.4349 28.0438H68.6969V30.9092ZM67.6602 27.0684H70.2519C70.6483 27.0684 71.0447 27.0988 71.4106 27.1903C71.7765 27.2817 72.1119 27.4037 72.3863 27.5866C72.6607 27.7695 72.9047 28.0133 73.0571 28.3181C73.2401 28.623 73.301 28.9888 73.301 29.446C73.301 29.9032 73.2096 30.2995 73.0266 30.6348C72.8437 30.9397 72.6302 31.1835 72.3253 31.3664C72.0509 31.5493 71.746 31.6712 71.4106 31.7322C71.0752 31.7932 70.7703 31.8541 70.4654 31.8541H68.7274V35.7559H67.6906V27.0684H67.6602Z" fill="white"></path><path d="M76.7464 33.0128C76.1366 33.0128 75.6487 33.1042 75.2828 33.2566C74.9169 33.4395 74.734 33.7139 74.734 34.1101C74.734 34.5064 74.8559 34.7198 75.0999 34.8722C75.3438 35.0246 75.6487 35.0856 76.0146 35.0856C76.3805 35.0856 76.533 35.0246 76.7464 34.9332C76.9598 34.8417 77.1428 34.7198 77.2647 34.5674C77.4172 34.415 77.5087 34.2321 77.5697 34.0187C77.6306 33.8053 77.6916 33.5919 77.6916 33.3481V32.9823H76.7464V33.0128ZM73.9717 30.757C74.2766 30.4522 74.612 30.2388 75.0084 30.0864C75.4048 29.934 75.8317 29.873 76.228 29.873C77.0818 29.873 77.6916 30.0864 78.0575 30.4827C78.4234 30.879 78.6369 31.4886 78.6369 32.3117V34.7808C78.6369 34.9332 78.6369 35.1161 78.6369 35.299C78.6369 35.4819 78.6673 35.6343 78.6978 35.7867H77.7831C77.7526 35.6648 77.7221 35.5123 77.7221 35.3599C77.7221 35.2075 77.7221 35.0551 77.7221 34.9332C77.5392 35.238 77.2952 35.4819 76.9598 35.6648C76.6549 35.8476 76.2585 35.9391 75.8317 35.9391C75.4048 35.9391 75.2523 35.9086 75.0084 35.8172C74.7645 35.7562 74.5205 35.6343 74.3376 35.4819C74.1546 35.3294 74.0022 35.1465 73.8802 34.9332C73.7583 34.7198 73.6973 34.4759 73.6973 34.2016C73.6973 33.7139 73.8192 33.3481 74.0632 33.0737C74.3071 32.7994 74.612 32.6165 74.9779 32.4641C75.3438 32.3421 75.7402 32.2507 76.1671 32.2202C76.5939 32.1897 76.9598 32.1592 77.3257 32.1592H77.6916V31.9764C77.6916 31.5496 77.5697 31.2448 77.3257 31.0314C77.0818 30.818 76.7159 30.7266 76.289 30.7266C75.8621 30.7266 75.6792 30.7875 75.3743 30.879C75.0694 30.9704 74.8254 31.1533 74.5815 31.3362L73.9717 30.6961V30.757Z" fill="white"></path><path d="M84.6744 34.4149C84.6744 34.6892 84.6744 34.9331 84.6744 35.1465C84.6744 35.3903 84.6744 35.5732 84.6744 35.7866H83.7597C83.7597 35.6342 83.7597 35.4818 83.7597 35.3294C83.7597 35.177 83.7597 35.0245 83.7597 34.8417C83.6987 34.9941 83.6072 35.116 83.4852 35.2379C83.3633 35.3599 83.2108 35.4818 83.0584 35.5732C82.9059 35.6647 82.723 35.7561 82.5095 35.8171C82.2961 35.8781 82.0826 35.9085 81.8387 35.9085C81.4728 35.9085 81.1374 35.8476 80.863 35.7256C80.5886 35.6037 80.3751 35.4513 80.1922 35.2379C80.0092 35.0245 79.8873 34.7807 79.7958 34.5063C79.7043 34.2015 79.6738 33.8967 79.6738 33.5614V30.0254H80.6191V33.4699C80.6191 33.9577 80.7105 34.3234 80.924 34.5978C81.1374 34.8721 81.4728 35.0245 81.9302 35.0245C82.3876 35.0245 82.5095 34.9636 82.723 34.8721C82.9364 34.7807 83.1193 34.6283 83.2718 34.4149C83.4243 34.232 83.5157 33.9881 83.5767 33.7138C83.6377 33.4394 83.6682 33.1346 83.6682 32.8298V30.0254H84.6134V34.4149H84.6744Z" fill="white"></path><path d="M86.7782 26.52H85.833V35.7867H86.7782V26.52Z" fill="white"></path><path d="M88.7291 32.9214C88.7291 33.2262 88.7901 33.5006 88.8815 33.7749C88.973 34.0188 89.1255 34.2626 89.2779 34.4455C89.4609 34.6284 89.6743 34.7808 89.9182 34.9028C90.1622 35.0247 90.4366 35.0552 90.772 35.0552C91.1074 35.0552 91.3513 34.9942 91.6257 34.9028C91.9002 34.8113 92.0831 34.6284 92.2661 34.4455C92.449 34.2626 92.571 34.0188 92.6624 33.7749C92.7539 33.531 92.8149 33.2262 92.8149 32.9214C92.8149 32.6166 92.7539 32.3422 92.6624 32.0679C92.571 31.824 92.4185 31.5801 92.2661 31.3972C92.0831 31.2144 91.8697 31.0619 91.6257 30.94C91.3818 30.8181 91.1074 30.7876 90.772 30.7876C90.4366 30.7876 90.1927 30.8486 89.9182 30.94C89.6743 31.0619 89.4609 31.2144 89.2779 31.3972C89.095 31.5801 88.973 31.824 88.8815 32.0679C88.7901 32.3117 88.7291 32.6166 88.7291 32.9214ZM87.6924 32.9214C87.6924 32.4641 87.7839 32.0679 87.9363 31.7021C88.0888 31.3363 88.3022 31.0315 88.5766 30.7571C88.851 30.4828 89.156 30.2999 89.5523 30.1475C89.9487 29.995 90.3451 29.9341 90.772 29.9341C91.1989 29.9341 91.6257 29.995 91.9916 30.1475C92.3575 30.2999 92.6929 30.5133 92.9674 30.7571C93.2418 31.0315 93.4552 31.3363 93.6077 31.7021C93.7601 32.0679 93.8516 32.4641 93.8516 32.9214C93.8516 33.3786 93.7601 33.7749 93.6077 34.1407C93.4552 34.5065 93.2418 34.8113 92.9674 35.0856C92.6929 35.36 92.388 35.5429 91.9916 35.6953C91.6257 35.8477 91.1989 35.9087 90.772 35.9087C90.3451 35.9087 89.9182 35.8477 89.5523 35.6953C89.1865 35.5429 88.851 35.3295 88.5766 35.0856C88.3022 34.8113 88.0888 34.5065 87.9363 34.1407C87.7839 33.7749 87.6924 33.3786 87.6924 32.9214Z" fill="white"></path></g><defs><clipPath id="clip0_5055_136425"><rect width="108" height="36" fill="white"></rect></clipPath></defs></svg>